<svg xmlns="http://www.w3.org/2000/svg" viewBox="0 0 117.48 117.48"><defs><style>.cls-1{fill:#058486;}.cls-2{fill:#102f41;}.cls-3{fill:#f05c42;}</style></defs><title>apple icon</title><g id="Layer_2" data-name="Layer 2"><g id="object"><circle class="cls-1" cx="58.74" cy="58.74" r="58.74"/><path class="cls-2" d="M54.31,86.84l-.12.17.12,0-.18,1.14,1.81-.93.85,3.29,1.13-2.83,1.87,2v-2l2.47.75-.57-1.75C59.23,84.64,56.77,86,54.31,86.84Z"/><path class="cls-3" d="M77.72,39c-7.56-1.27-13.9,1.81-17,3.74l.19,0-.19,0-.74.47c0-.07,0-.15,0-.22a2.14,2.14,0,0,0-1.1,1.74c-1.43.71-1.34-1.1-1.89-2.22v.39a25.82,25.82,0,0,0-15.54-4.12C31,39.24,24.09,47,24.29,58.4c.2,15.87,14.28,29.27,24.1,29.27A24.66,24.66,0,0,0,54.19,87l.12-.17-.44.15.44-.15A2.1,2.1,0,0,1,55.89,86a2.1,2.1,0,0,0-1.58.85c2.46-.88,4.91-2.2,7.37-.17v0a22.06,22.06,0,0,0,7.1,1.07c9.82,0,24-10.62,24.15-26.49C93.12,49.76,88.43,40.77,77.72,39Z"/><path class="cls-2" d="M58.91,44.7A2.14,2.14,0,0,1,60,43c.11-2.34.23-4.87.28-6.36.08-2.07,3.73-3.16,5.49-4.84,1-1,0-3.62,0-3.62s-9.1,4-8.85,7.94c.11,1.79.14,4.26.13,6.4C57.57,43.59,57.48,45.41,58.91,44.7Z"/></g></g></svg>