<svg xmlns="http://www.w3.org/2000/svg" viewBox="0 0 117.48 117.48"><defs><style>.cls-1{fill:#f05c42;}.cls-2{fill:#f7f1e6;}.cls-3{fill:#058486;}.cls-4{fill:#faaf3d;}.cls-5{fill:#102f41;}</style></defs><title>books icon</title><g id="Layer_2" data-name="Layer 2"><g id="object"><circle class="cls-1" cx="58.74" cy="58.74" r="58.74"/><rect class="cls-2" x="48.49" y="34.74" width="16.8" height="57.06"/><rect class="cls-2" x="72.77" y="40.32" width="21.84" height="52.43" transform="translate(-14.38 23.96) rotate(-15.02)"/><path class="cls-3" d="M75.5,43a1.17,1.17,0,1,0-2.29.46L85.36,92.1a1.17,1.17,0,1,0,2.29-.46Z"/><path class="cls-3" d="M81.59,41.72a1.16,1.16,0,1,0-2.28.47L91.45,90.87a1.16,1.16,0,1,0,2.28-.46Z"/><path class="cls-4" d="M66.62,42V30.67a4.75,4.75,0,0,0-4.75-4.76H51.94a4.76,4.76,0,0,0-4.76,4.76l0,61.09a4.76,4.76,0,0,0,4.75,4.77h9.93a4.76,4.76,0,0,0,4.76-4.75l0-38.71-2-7.91A2.66,2.66,0,0,1,66.62,42Zm-5.7,47.45H52.86a1.67,1.67,0,1,1,0-3.34h8.07a1.67,1.67,0,0,1,0,3.34Zm0-47.83H52.87a1.67,1.67,0,0,1,0-3.34h8.07a1.67,1.67,0,0,1,0,3.34Z"/><rect class="cls-2" x="28.7" y="33.11" width="16.8" height="57.06"/><path class="cls-3" d="M42,24.85H32a4.77,4.77,0,0,0-4.77,4.76l0,61.09A4.76,4.76,0,0,0,32,95.45h9.93a4.77,4.77,0,0,0,4.77-4.75l0-61.09A4.75,4.75,0,0,0,42,24.85ZM41,88.43H33a1.67,1.67,0,1,1,0-3.34H41a1.67,1.67,0,0,1,0,3.34ZM41,40.6H33a1.67,1.67,0,0,1,0-3.34H41a1.67,1.67,0,0,1,0,3.33Z"/><path class="cls-5" d="M102.16,88.47C101.91,87.23,90,40,90,40a2.66,2.66,0,0,0-5.22,1.06L96,85.8,81.11,89.16,69.87,44.07A2.66,2.66,0,0,0,66.73,42l-.11,0a2.66,2.66,0,0,0-2,3.11l2,7.91L76.8,93.86a2.66,2.66,0,0,0,3,2.09v0l20.65-4.75v0h0A2.11,2.11,0,0,0,102.16,88.47Z"/></g></g></svg>