<svg xmlns="http://www.w3.org/2000/svg" viewBox="0 0 117.48 117.48"><defs><style>.cls-1{fill:#faaf3d;}.cls-2{fill:#102f41;}.cls-3{fill:#f7f1e6;}.cls-4{fill:#058486;}</style></defs><title>checklist icon</title><g id="Layer_2" data-name="Layer 2"><g id="object"><circle class="cls-1" cx="58.74" cy="58.74" r="58.74"/><rect class="cls-2" x="33.03" y="24.57" width="53.12" height="68.4" rx="4.18" ry="4.18"/><rect class="cls-3" x="38.95" y="32.19" width="41.28" height="53.16" rx="3.25" ry="3.25"/><rect class="cls-2" x="51.53" y="43.21" width="24.23" height="2.94" rx="0.97" ry="0.97"/><rect class="cls-2" x="44.06" y="41.93" width="5.48" height="5.48" rx="1.01" ry="1.01"/><rect class="cls-2" x="51.53" y="50.76" width="24.23" height="2.94" rx="0.97" ry="0.97"/><rect class="cls-2" x="44.06" y="49.49" width="5.48" height="5.48" rx="1.01" ry="1.01"/><rect class="cls-2" x="51.53" y="58.31" width="24.23" height="2.94" rx="0.97" ry="0.97"/><rect class="cls-2" x="44.06" y="57.04" width="5.48" height="5.48" rx="1.01" ry="1.01"/><rect class="cls-2" x="51.53" y="65.86" width="24.23" height="2.94" rx="0.97" ry="0.97"/><rect class="cls-2" x="44.06" y="64.59" width="5.48" height="5.48" rx="1.01" ry="1.01"/><rect class="cls-2" x="51.53" y="73.42" width="24.23" height="2.94" rx="0.97" ry="0.97"/><rect class="cls-2" x="44.06" y="72.14" width="5.48" height="5.48" rx="1.01" ry="1.01"/><rect class="cls-4" x="49.55" y="27.68" width="19.14" height="9.79" rx="3.47" ry="3.47"/></g></g></svg>