<svg xmlns="http://www.w3.org/2000/svg" viewBox="0 0 117.48 117.48"><defs><style>.cls-1{fill:#faaf3d;}.cls-2{fill:#0c5054;}.cls-3{fill:#f05c42;}.cls-4{fill:#f7f1e6;}.cls-5{fill:#102f41;}</style></defs><title>clock icon</title><g id="Layer_2" data-name="Layer 2"><g id="object"><circle class="cls-1" cx="58.74" cy="58.74" r="58.74"/><path class="cls-2" d="M39.56,97.15a2.42,2.42,0,0,1-3.42,0l-2.51-2.51a2.42,2.42,0,0,1,0-3.42l15-15a2.42,2.42,0,0,1,3.42,0l2.51,2.51a2.42,2.42,0,0,1,0,3.42Z"/><path class="cls-2" d="M78.55,97.15a2.42,2.42,0,0,0,3.42,0l2.51-2.51a2.42,2.42,0,0,0,0-3.42l-15-15a2.42,2.42,0,0,0-3.42,0l-2.51,2.51a2.42,2.42,0,0,0,0,3.42Z"/><circle class="cls-2" cx="40.6" cy="32.24" r="12.62"/><circle class="cls-2" cx="80.91" cy="32.24" r="12.62"/><circle class="cls-3" cx="59.05" cy="59.4" r="34.07"/><circle class="cls-4" cx="59.05" cy="59.4" r="27.93"/><rect class="cls-5" x="57.39" y="34.1" width="3.39" height="6.19"/><rect class="cls-5" x="57.39" y="78.99" width="3.39" height="6.19"/><rect class="cls-5" x="78.43" y="57.94" width="6.19" height="3.39"/><rect class="cls-5" x="33.55" y="57.94" width="6.19" height="3.39"/><path class="cls-5" d="M61.26,60.95a.65.65,0,0,1-.65.65H58a.65.65,0,0,1-.65-.65V45.64a3.17,3.17,0,0,1,.3-1.22L59,41.83c.16-.32.43-.32.59,0L61,44.42a3.16,3.16,0,0,1,.3,1.22Z"/><path class="cls-3" d="M58,61.82a.65.65,0,0,1-.65-.64V58.59a.65.65,0,0,1,.65-.65h6.9a3.16,3.16,0,0,1,1.22.3l2.59,1.34c.32.16.32.43,0,.59l-2.59,1.34a3.14,3.14,0,0,1-1.22.3Z"/><rect class="cls-2" x="42.4" y="65.77" width="19.35" height="0.65" transform="translate(-31.26 54.4) rotate(-43.78)"/><circle class="cls-2" cx="59.97" cy="60.04" r="3.07"/></g></g></svg>