<svg xmlns="http://www.w3.org/2000/svg" viewBox="0 0 117.48 117.48"><defs><style>.cls-1{fill:#faaf3d;}.cls-2{fill:#674c3b;}.cls-2,.cls-3,.cls-4,.cls-6,.cls-7{fill-rule:evenodd;}.cls-3,.cls-5{fill:#ddc7ad;}.cls-4{fill:#f6f1e6;}.cls-6{fill:#f2dbbc;}.cls-10,.cls-7{fill:#f05c42;}.cls-8{fill:#052537;}.cls-9{fill:#102f41;}</style></defs><title>female student icon</title><g id="Layer_2" data-name="Layer 2"><g id="object"><circle class="cls-1" cx="58.74" cy="58.74" r="58.74"/><path class="cls-2" d="M70,68.71c-2.57,1.33-4.61,4.89-2.73,6.36,2.45.86,13.43-.56,16.55,1.17.47.26,1,.51,1.47.76a7.9,7.9,0,0,0,.06-1.51c-.17-3-1.91-1.89-2.37-1.64a2,2,0,0,1-2.54-.8,8.67,8.67,0,0,0,4.74-7.21c0-2.29-1.43-1.5-1.88-1.32-2.27.92-4.47-3.62-1.34-7,1.71-1.64.84-2.8.33-3.37a15,15,0,0,0-1.82-1.73c-.18.34-.32.65-.49.91C78.72,59.49,75,65.54,70,68.71Z"/><path class="cls-2" d="M55.53,69a25.7,25.7,0,0,1-10-13.9,5.75,5.75,0,0,1-1.31-2.37,15.77,15.77,0,0,0-1.43,1.42c-.51.57-1.38,1.73.33,3.38,3.14,3.39.94,7.93-1.34,7-.45-.18-1.88-1-1.88,1.32a8.67,8.67,0,0,0,4.74,7.21,2,2,0,0,1-2.54.8c-.46-.26-2.2-1.4-2.37,1.64a7.94,7.94,0,0,0,0,1.33c.38-.19.75-.38,1.11-.58C43.1,75,57.47,79.76,61.06,78,62.88,77.14,55,69.25,55.53,69Z"/><path class="cls-2" d="M55.59,69l-.06,0c0,.55,0,1.17,0,1.84h.06Z"/><path class="cls-3" d="M62.45,91.65l0-.06,0,0S62.45,91.61,62.45,91.65Z"/><path class="cls-4" d="M62.42,89.83c0,.37.05.76.06,1.16A3.36,3.36,0,0,0,62.42,89.83Z"/><path class="cls-4" d="M62.49,91.55v0Z"/><rect class="cls-5" x="55.59" y="68.34" width="14.26" height="10.07"/><path class="cls-6" d="M55.53,69l.06,0a13.06,13.06,0,0,0,13.87,0l.53-.33c5-3.18,8.74-9.21,10-15.38C78.28,56,77,55,76.72,50.8a11.69,11.69,0,0,0-4.92-8.39,16.24,16.24,0,0,1,1,4.43,2.82,2.82,0,0,1-3.35,3.27c-7-1.05-13.17-4.3-16.59-7.87a11.12,11.12,0,0,0-4.67,8.66c.07,2.46-1.2,5.48-2.7,4.21,1.55,5.51,5,10.69,9.51,13.57A3.23,3.23,0,0,0,55.53,69Z"/><path class="cls-2" d="M45.54,55.12c1.5,1.27,2.77-1.75,2.7-4.21a11.12,11.12,0,0,1,4.67-8.66c3.41,3.57,9.58,6.81,16.59,7.87a2.82,2.82,0,0,0,3.35-3.27,16.24,16.24,0,0,0-1-4.43,11.69,11.69,0,0,1,4.92,8.39C77,55,78.28,56,80,53.34c.17-.27.35-.57.53-.91s.24-.47.36-.73c1.38-2.94-.35-12.25-5.93-18.34a5.09,5.09,0,0,1-4.75,2.58H55.7a5,5,0,0,1-5.2-3.66l0-.15c-6,5-8.23,13.37-6.83,18.75.19.72.38,1.34.57,1.87A5.71,5.71,0,0,0,45.54,55.12Z"/><path class="cls-7" d="M83.81,76.24c-3.12-1.73-14-2-14-2A11.09,11.09,0,0,1,62.54,77a9.63,9.63,0,0,1-6.95-2.73s-11.38.13-14.7,2c-.36.2-9.58,4.07-9.58,9.58v4.69C31.31,93.64,34.5,96,39,96H85.71c4.5,0,7.69-2.33,7.69-5.46V85.82C93.39,80.47,84.28,76.5,83.81,76.24Z"/><path class="cls-8" d="M74.78,35.82a7.9,7.9,0,0,1-1,3.59s-1.23,1.93-12.13,1.93S47.73,39,47.73,39a4.56,4.56,0,0,1-1.52-3.15V27a2,2,0,0,1,1.94-1.94H72.84A2,2,0,0,1,74.78,27Z"/><path class="cls-9" d="M34.53,22.13c-1,.34-1,.9,0,1.25L59,31.91a6.32,6.32,0,0,0,3.66,0l21.62-8c1-.37,1-1,0-1.31L61.24,14.53a6.68,6.68,0,0,0-3.68,0Z"/><path class="cls-10" d="M76.74,37.16c0,1.07-.44,1.94-1,1.94s-1-.87-1-1.94V27.41l2-.72Z"/><path class="cls-10" d="M78,39.7a1.89,1.89,0,0,1-1.94,1.82h-.89a1.83,1.83,0,1,1,0-3.65h.89A1.89,1.89,0,0,1,78,39.7Z"/></g></g></svg>