<svg xmlns="http://www.w3.org/2000/svg" viewBox="0 0 117.48 117.48"><defs><style>.cls-1{fill:#f05c42;}.cls-2{fill:#102f41;}.cls-3{fill:#6dae7e;}.cls-4{fill:#058486;}</style></defs><title>globe icon</title><g id="Layer_2" data-name="Layer 2"><g id="object"><circle class="cls-1" cx="58.74" cy="58.74" r="58.74"/><rect class="cls-2" x="54.83" y="82.78" width="14.79" height="8.73"/><polygon class="cls-2" points="75.37 81.48 80.6 78.86 49.75 21.32 44.65 24.05 75.37 81.48"/><path class="cls-3" d="M54.22,22.83A29.78,29.78,0,1,0,83,73.26l2.41,4A34.4,34.4,0,1,1,52,18.69Z"/><path class="cls-3" d="M41.91,98.78c0-4.84,9.06-9.16,20.24-9.16s20.24,4.32,20.24,9.16Z"/><circle class="cls-2" cx="63.58" cy="51.43" r="25.38"/><path class="cls-4" d="M82.43,44.07l.44.32h.41v-.79l1.3-.12,1.23.92h2l.14-.13q-.3-1-.69-2l-1.32,0-.66-.73-.13-1.17-.68.37-.37,1.43-1-1,0-1-.95-.81L81.81,39h-1.1l.35,1,1.32.74.23.24-.29.14v.78l-.64.27L81.15,42l-.34-.49.89,0,.24-.33L80,39.9l-.15-.57-.81.73-.82-.17-1.24,1.62-.24.63-.79.07H74.72l-.7-.33-.21-1.4.25-.67,1.2-.26,1.31.26.16-.72L76.17,39l.19-1.13,1.31-.21.92-1.3.95-.16.86.13h.31l-.17-1.22-1,.42-.37-.91-.6-.09-.11-.62.49-.54,1.17-.46.3-.54A25.32,25.32,0,0,0,48.7,30.88H50l.57.32,1.07.23.08.42,1.71.06-.23-.55-1.52,0L52,31l-.12-.4H50.53L52,29.46h1.44l.67.93,1.12.06.67-.65.51.25-.93.91-1.22,0a4.3,4.3,0,0,1,.11.89l1.56,0,.17-.42,1.08-.06.13-.63-.63-.11L56.9,30l.49-.15,1.69.08-.93.84.15.65,1,.15-.06-1.18.93-.49,1.65-.19,2.38,1.06v.91l.76.19-.38.72H63.46l-.32.82-2.46-.58,1.93-1-.74-.63-1.67.21-.15.15h0l0,0-.48.5-.79.07.06.39.28.11v.13l-.65.09,0,.37-.62,0-.11-.74-1.11.34L54.3,34.23l.25.93.63.41,1.27.17v1.44l.58-.1L57.58,36l1.34-.43V33.82l.75-.56,1.81.43-.13,1.14h.49l1.33-.65.06,1.5,1,.59,0,.89-.93.31.06.29,1.12.51,0,.61-.32,0v0l-1.41-.44L62.59,38h0l.41-.28V37.3l-.44-.11-.11.38-.78.12-.08,0v0l-.27,0-.22-.44-.25-.11H60.3l-.25.21v.46l.47.16.47.07-.11,0-.43.47-.19-.24-.41-.11-1.12,1.06.15.12-1.66.92L55.66,42l-.11.72-1.57,1-.78.78.09,1.56-1.08-.5v-.91h-3l-1.55.78L47,46.68l-.27,1,.44,1,1.22.15,1.94-1.3.17.65-.59,1.12,1.48.25.15,2.28,2,.34,1.29-1.49,1.56.32.55.76,1.5-.09,0-.44.82.4L60.26,53l1.6,0,.59,1,.08,1.26,1.77.67,2.24,0,.66,1.07,1,.32-.19.89-1.09,1.38-.32,3.06-1,.78-1.46,0-.49.84L64,65.92l-1.58,2-.51.93-1.51.72-1,.15,0,.42.7.2-.08.45-.62.6.38.48.75,0,0,.58-.2.57-.06.46,1.11.94-.15.49-1.51,0-1.5-1.31L57,71.56l.16-2-.89-1.18.36-2-.53-.15V61.89s-1.48-1.12-1.56-1.12-.78-.19-.78-.19l-.15-.82-1.92-2.41.19-.87.06-1.41,1.33-.93-.19-1.58-1.94-.15-1.52-1.73-1.08-.3-.7-.13.08-.63L47,49.5v.36l-2.22-.55L43.94,48l.36-.66-1.4-2-.24-1.5h-.57l.19,1.46,1,1.5-.11.59-.82-.13-1-1.73v-2l-1.05-.51V41.47A25.38,25.38,0,0,0,83.31,67.42h-.84V65.73l-1-1.3v-2l-.74-.74-.06-.85L81.64,59l-1.78-3.14.21-2.13-1.6-.17L77.88,53H76.8l-.55.51h-1.9l-.06.17H73.23L70.81,50.9l0-2.15.4-.15.15-.82h-.57l-.23-.87,2.81-2V43.45l1.37-.76.56.05h1.13l.88-.48L80.18,42V43.5ZM75.3,35l.23-.36.83-.17.21,1,.44.72.29.34.54.21-.5.6-1,.09h-.74l.08-.88.61-.13-.05-.41-.57-.36-.4-.27ZM73.93,36.6l.51-.81.68-.16.49.21,0,.55-1,.74h-.59Zm-13.8,3.12-.53,0,0-.37.24-.29.32.25ZM62,39.08l-.36,0-.07.35-.28.17-.45,0,0-.19h-.17v-.37h.73l.15-.39h.29l.33.07Z"/></g></g></svg>