<svg xmlns="http://www.w3.org/2000/svg" xmlns:xlink="http://www.w3.org/1999/xlink" viewBox="0 0 820 615"><defs><style>.cls-1{fill:#3fa9f5;}.cls-2{font-size:80px;}.cls-10,.cls-2,.cls-8{fill:#fff;}.cls-10,.cls-11,.cls-2,.cls-8,.cls-9{font-family:Futura-Medium, Futura;}.cls-3{letter-spacing:-0.05em;}.cls-4{letter-spacing:0em;}.cls-5{letter-spacing:-0.01em;}.cls-6{fill:#29abe2;}.cls-10,.cls-11,.cls-12,.cls-13,.cls-7,.cls-8,.cls-9{isolation:isolate;}.cls-10,.cls-11,.cls-8,.cls-9{font-size:40.86px;}.cls-11,.cls-13,.cls-9{fill:none;stroke:#fff;stroke-miterlimit:10;}.cls-11,.cls-9{stroke-width:0.26px;}.cls-10,.cls-11{letter-spacing:-0.06em;}.cls-12,.cls-13{font-size:35.75px;font-family:ProximaNova-Regular, Proxima Nova;}.cls-12{fill:#e5e4e2;}.cls-13{stroke-width:0.51px;}</style></defs><title>ielts prep course featured</title><g id="Layer_2" data-name="Layer 2"><g id="Layer_1-2" data-name="Layer 1"><image width="4032" height="3024" transform="translate(0 0) scale(0.2)" xlink:href="../../../IMG_5662.JPG"/><rect class="cls-1" x="84" y="386" width="636" height="75"/><rect class="cls-1" x="84" y="484" width="297" height="71"/><text class="cls-2" transform="translate(84.19 454.41)">IE<tspan class="cls-3" x="68.83" y="0">L</tspan><tspan class="cls-4" x="100.39" y="0">T</tspan><tspan x="138.91" y="0">S P</tspan><tspan class="cls-5" x="253.44" y="0">r</tspan><tspan x="282.81" y="0">epa</tspan><tspan class="cls-5" x="423.01" y="0">r</tspan><tspan x="452.38" y="0">ation</tspan><tspan x="0" y="96">Courses</tspan></text><g id="Layer_2-2" data-name="Layer 2"><g id="Layer_1-2-2" data-name="Layer 1-2"><ellipse class="cls-6" cx="661" cy="113" rx="84.16" ry="83"/><g class="cls-7"><text class="cls-8" transform="translate(575 113.09) scale(1.01 1)">WE</text><text class="cls-9" transform="translate(575 113.09) scale(1.01 1)">WE</text><text class="cls-10" transform="translate(642.37 113.09) scale(1.01 1)">A</text><text class="cls-11" transform="translate(642.37 113.09) scale(1.01 1)">A</text><text class="cls-8" transform="translate(670.61 113.09) scale(1.01 1)">VER</text><text class="cls-9" transform="translate(670.61 113.09) scale(1.01 1)">VER</text></g><text class="cls-12" transform="translate(587.82 142.97) scale(1.01 1)">ENGLISH</text><text class="cls-13" transform="translate(587.82 142.97) scale(1.01 1)">ENGLISH</text></g></g></g></g></svg>