<svg xmlns="http://www.w3.org/2000/svg" viewBox="0 0 117.48 117.48"><defs><style>.cls-1{fill:#faaf3d;}.cls-2,.cls-4{fill:#ddc7ad;}.cls-3,.cls-9{fill:#f05c42;}.cls-3,.cls-4,.cls-5,.cls-6{fill-rule:evenodd;}.cls-5{fill:#f2dbbc;}.cls-6{fill:#674c3b;}.cls-7{fill:#052537;}.cls-8{fill:#102f41;}</style></defs><title>male student icon</title><g id="Layer_2" data-name="Layer 2"><g id="object"><circle class="cls-1" cx="58.74" cy="58.74" r="58.74"/><rect class="cls-2" x="54.36" y="71.24" width="14.26" height="10.07"/><path class="cls-3" d="M82.58,79.15c-3.12-1.73-14-2-14-2A11.09,11.09,0,0,1,61.3,79.9a9.63,9.63,0,0,1-6.95-2.73s-11.38.13-14.7,2c-.36.2-9.58,4.07-9.58,9.58v4.7c0,3.13,3.19,5.46,7.69,5.46H84.47c4.49,0,7.68-2.33,7.68-5.46v-4.7C92.16,83.38,83,79.41,82.58,79.15Z"/><polygon class="cls-4" points="61.12 79.77 61.12 79.78 61.13 79.78 61.12 79.77"/><path class="cls-5" d="M67.85,72.43c4.93-2.91,8.7-8.71,10-14.72a21.58,21.58,0,0,1-1-3.25,5.74,5.74,0,0,0-.1,1.08c.07,2-1.56,4.21-1.58-.06,0-3.69-6.22-12.34-6.61-12.58a34.59,34.59,0,0,1-11.24,5.58c-.68.15-1.82.07-1-.62a4.44,4.44,0,0,0,1.3-2.14c.29-.89-3.48,2.32-6.25,3.77-.7.37-2.17,1-1.08-.3a2.94,2.94,0,0,0,.77-2c-3.94,2.15-3.87,5.09-3.86,8.44,0,2.93-1.58,3.81-1.77,1.23a4.27,4.27,0,0,1-.78,2c1.54,5.59,5.15,10.85,9.76,13.57a12.65,12.65,0,0,0,13.45,0Z"/><path class="cls-6" d="M45.41,56.89c.19,2.59,1.78,1.7,1.77-1.23,0-3.35-.07-6.29,3.86-8.44a2.94,2.94,0,0,1-.77,2c-1.09,1.3.37.67,1.08.3,2.77-1.46,6.54-4.66,6.25-3.77a4.44,4.44,0,0,1-1.3,2.14c-.81.68.33.77,1,.62a34.59,34.59,0,0,0,11.24-5.58c.39.23,6.6,8.89,6.61,12.58,0,4.27,1.65,2.07,1.58.06a5.74,5.74,0,0,1,.1-1.08,21.58,21.58,0,0,0,1,3.25c.74,1.62,1.26.67,1.84-2.67a24.7,24.7,0,0,0-1.6-11.73,21.51,21.51,0,0,0-4.45-6.9l-.14.47a4.88,4.88,0,0,1-5,3.54h-14a4.89,4.89,0,0,1-5-3.54l-.41-1.39A16.29,16.29,0,0,0,44.77,41c-2.14,4.47-2.1,10.6-1.93,13,.28,3.93,1.08,5.55,1.79,4.84A4.27,4.27,0,0,0,45.41,56.89Z"/><path class="cls-7" d="M74.58,37.2a7.89,7.89,0,0,1-1,3.58s-1.23,1.93-12.13,1.93-13.88-2.36-13.88-2.36A4.56,4.56,0,0,1,46,37.2v-8.8A2,2,0,0,1,48,26.45H72.64a2,2,0,0,1,1.94,1.94Z"/><path class="cls-8" d="M34.33,23.5c-1,.34-1,.9,0,1.25l24.51,8.54a6.32,6.32,0,0,0,3.66,0l21.62-8c1-.37,1-1,0-1.31L61,15.9a6.67,6.67,0,0,0-3.68,0Z"/><path class="cls-9" d="M76.54,38.54c0,1.07-.44,1.94-1,1.94s-1-.87-1-1.94V28.79l2-.72Z"/><path class="cls-9" d="M77.83,41.07a1.89,1.89,0,0,1-1.94,1.82H75a1.83,1.83,0,1,1,0-3.65h.89A1.89,1.89,0,0,1,77.83,41.07Z"/></g></g></svg>