<svg xmlns="http://www.w3.org/2000/svg" viewBox="0 0 117.48 117.48"><defs><style>.cls-1{fill:#faaf3d;}.cls-2{fill:#016f70;}.cls-3{fill:#058486;}.cls-4{fill:#c6bda3;}.cls-5{fill:#f1e4c4;}.cls-6{fill:#f05c42;}</style></defs><title>open book icon</title><g id="Layer_2" data-name="Layer 2"><g id="object"><circle class="cls-1" cx="58.74" cy="58.74" r="58.74"/><path class="cls-2" d="M79.5,31.22c-11.9,0-17.4,1.8-17.4,1.8a7.15,7.15,0,0,1-3.65,0s-6.1-1.84-18-1.84S23,33,23,33a2.82,2.82,0,0,0-1.82,2.51V85.75a1.48,1.48,0,0,0,1.87,1.5,98.93,98.93,0,0,1,18.62-2c9.57,0,16.71-.15,16.71-.15a8.22,8.22,0,0,0,3.48.13s9.3,0,18.86,0a71.88,71.88,0,0,1,16.71,1.9,1.4,1.4,0,0,0,1.85-1.42V35.53a2.74,2.74,0,0,0-1.83-2.47S91.4,31.22,79.5,31.22Z"/><path class="cls-3" d="M79.5,31.22c-11.9,0-17.4,1.8-17.4,1.8a7.15,7.15,0,0,1-3.65,0s-6.1-1.84-18-1.84S23,33,23,33a2.82,2.82,0,0,0-1.82,2.51V83.69a1.48,1.48,0,0,0,1.87,1.5,99,99,0,0,1,18.62-2,71.87,71.87,0,0,1,16.71,1.9,9.37,9.37,0,0,0,3.72.08,98.93,98.93,0,0,1,18.62-2,71.88,71.88,0,0,1,16.71,1.9,1.4,1.4,0,0,0,1.85-1.42V35.53a2.74,2.74,0,0,0-1.83-2.47S91.4,31.22,79.5,31.22Z"/><path class="cls-4" d="M77.13,34.57c-10.43,0-15.25,1.57-15.25,1.57a6.28,6.28,0,0,1-3.2,0s-5.35-1.61-15.78-1.61-15.25,1.57-15.25,1.57a2.48,2.48,0,0,0-1.59,2.2V80.55a1.29,1.29,0,0,0,1.64,1.32A86.76,86.76,0,0,1,44,80.13a63,63,0,0,1,14.64,1.66,8.19,8.19,0,0,0,3.26.07,86.78,86.78,0,0,1,16.32-1.74,63,63,0,0,1,14.64,1.66,1.23,1.23,0,0,0,1.62-1.25V38.34a2.4,2.4,0,0,0-1.61-2.16S87.55,34.57,77.13,34.57Z"/><path class="cls-5" d="M77.13,34.57c-10.43,0-15.25,1.57-15.25,1.57a6.28,6.28,0,0,1-3.2,0s-5.35-1.61-15.78-1.61-13.33,1.1-13.33,1.1a2.47,2.47,0,0,0-1.6,2.2V80.07a1.3,1.3,0,0,0,1.64,1.32A77.81,77.81,0,0,1,44,80.13a63,63,0,0,1,14.64,1.66,8.19,8.19,0,0,0,3.26.07,86.78,86.78,0,0,1,16.32-1.74,63,63,0,0,1,14.64,1.66,1.23,1.23,0,0,0,1.62-1.25V38.34a2.4,2.4,0,0,0-1.61-2.16S87.55,34.57,77.13,34.57Z"/><rect class="cls-4" x="59.98" y="36.18" width="0.48" height="45.82"/><rect class="cls-6" x="58.68" y="36.18" width="3.08" height="23.19"/></g></g></svg>